<?xml version="1.0" encoding="UTF-8"?>
<!DOCTYPE svg  PUBLIC '-//W3C//DTD SVG 1.1//EN'  'http://www.w3.org/Graphics/SVG/1.1/DTD/svg11.dtd'>
<svg width="1370px" height="215px" clip-rule="evenodd" fill-rule="evenodd" image-rendering="optimizeQuality" shape-rendering="geometricPrecision" text-rendering="geometricPrecision" version="1.1" viewBox="0 0 1480 232" xml:space="preserve" xmlns="http://www.w3.org/2000/svg">
 <defs>
  <style type="text/css">
   <![CDATA[
    .fil0 {fill:white}
    .fil1 {fill:black;fill-rule:nonzero}
    .fil2 {fill:#6699FF;fill-rule:nonzero}
   ]]>
  </style>
 </defs>
 
  
  <rect class="fil0" width="1480" height="232"/>
  <path class="fil1" d="m115 22c19 0 34 4 46 12 11 8 17 20 17 35s-5 28-14 39c-9 10-21 18-38 22 3 4 5 8 8 14s5 12 8 19 6 14 9 22c3 7 5 14 7 21h-26c-2-6-5-13-7-20-3-7-5-13-8-20-3-6-6-12-8-17-3-6-6-11-8-15h-7c-2 0-4 1-6 1h-21l-17 71h-25l43-179c7-2 15-3 23-4 8 0 16-1 24-1zm-4 22c-12 0-20 0-22 1l-17 69h16c7 0 14-1 22-2 7-1 14-3 20-6 7-3 12-7 16-13 4-5 6-13 6-22 0-10-4-17-12-21-7-4-17-6-29-6z"/>
  <path class="fil1" d="m214 135c10-1 20-1 28-2 9-1 16-3 22-5 6-3 11-6 14-10 4-4 5-9 5-16 0-1 0-3-1-5 0-2-1-3-3-5-1-1-3-2-6-3-2-1-6-2-10-2-6 0-11 2-17 4-5 3-10 6-14 11-4 4-8 9-11 15-3 5-5 11-7 18zm25 75c-9 0-16-2-23-4-6-3-12-6-16-11-4-4-8-9-10-15s-3-13-3-19c0-12 2-24 6-36 3-11 8-21 15-30s15-16 25-21 21-7 34-7c7 0 13 0 18 2s9 5 13 8c3 3 5 7 7 11 1 4 2 8 2 12 0 9-1 16-4 21-3 6-7 11-12 15-5 3-11 6-17 8-7 3-14 4-21 5-7 2-14 3-21 3s-14 1-21 1v4 2c0 4 0 8 1 11 1 4 3 7 6 10 2 2 6 4 11 6 4 2 10 2 18 2 3 0 7 0 10-1 4 0 7-1 10-2 4-1 7-2 9-3 3-1 4-2 6-3l2 21c-4 2-10 4-17 6-8 3-17 4-28 4z"/>
  <path class="fil1" d="m363 210c-13 0-22-3-28-9-7-6-10-14-10-25 0-7 2-16 4-28l28-116 26-5-11 43h47l-5 20h-47l-14 61c-2 8-3 15-3 21s1 10 5 13c3 2 8 3 15 3 5 0 10 0 15-2s9-3 12-5l1 21c-2 2-7 3-13 5s-14 3-22 3z"/>
  <path class="fil1" d="m497 67h7c3 0 5 1 8 1 2 0 5 1 7 1 2 1 4 1 5 2l-8 21c-3-1-7-2-12-3-4-1-9-1-13-1-3 0-7 0-11 1-3 0-6 1-9 2l-28 115h-24l31-131c7-3 15-4 23-6 8-1 16-2 24-2z"/>
  <path class="fil1" d="m608 208c-1-2-2-4-3-7 0-2-1-5-2-7-3 3-9 7-15 10-7 4-15 6-24 6-8 0-14-2-20-4-5-3-10-6-13-10-4-5-6-10-8-16s-3-12-3-19c0-12 2-24 6-35s10-21 18-30 18-16 30-21 26-8 41-8c5 0 11 0 17 1s12 3 16 6l-20 82c-1 4-2 8-2 12-1 3-1 7-1 11s0 8 1 12 2 9 4 14l-22 3zm-39-19c7 0 14-2 19-5s10-7 14-11v-9c1-3 1-7 2-10l16-65c-1-1-2-1-4-1h-6c-10 0-19 2-27 6-8 3-15 9-20 15-6 6-11 14-14 22-3 9-4 18-4 27 0 4 0 7 1 11s2 7 4 10 4 5 7 7 7 3 12 3z"/>
  <path class="fil1" d="m664 157c0-12 2-23 5-34 4-11 9-21 16-29 7-9 16-15 26-20s22-8 35-8c5 0 11 1 16 1 5 1 10 3 15 5l-9 21c-3-2-6-3-10-4s-9-1-14-1c-9 0-17 1-24 5-6 4-12 9-17 15s-9 14-11 22c-3 8-4 16-4 25 0 5 1 9 2 13s2 7 5 10c2 4 5 6 10 8 4 1 9 2 15 2 3 0 7 0 10-1 4 0 7-1 10-2s5-2 8-3c2-1 4-1 5-2l2 20c-3 3-8 5-15 7s-15 3-24 3-16-2-23-4c-6-3-12-6-16-11s-8-10-10-17c-2-6-3-13-3-21z"/>
  <path class="fil1" d="m823 210c-14 0-23-3-29-9s-10-14-10-25c0-7 2-16 4-28l28-116 26-5-11 43h47l-5 20h-47l-14 61c-2 8-3 15-3 21s1 10 5 13c3 2 8 3 15 3 5 0 10 0 15-2s9-3 12-5l1 21c-2 2-7 3-13 5s-13 3-21 3z"/>
  <path class="fil1" d="m929 210c-15 0-26-5-34-13-8-9-12-20-12-35 0-10 1-21 4-32s8-22 14-31c6-10 14-17 24-24 10-6 22-9 37-9 14 0 25 5 33 13 9 8 13 20 13 35 0 10-2 21-5 32s-7 22-14 31c-6 9-14 17-24 23-10 7-22 10-36 10zm4-21c8 0 15-2 21-7s12-10 16-17c4-8 7-15 10-24 2-8 3-17 3-25 0-9-2-16-6-21-3-5-10-8-20-8-7 0-14 2-21 7-6 4-11 10-15 17-5 7-8 15-10 24-3 8-4 17-4 25 0 9 2 16 6 21s11 8 20 8z"/>
  <path class="fil1" d="m1101 67h7c2 0 5 1 7 1 3 0 5 1 7 1 2 1 4 1 5 2l-7 21-12-3c-5-1-9-1-13-1s-8 0-11 1c-4 0-7 1-9 2l-28 115h-25l32-131c7-3 14-4 22-6 8-1 16-2 25-2z"/>
  <path class="fil2" d="m1209 44c-13 0-21 0-24 1l-33 140c1 1 3 1 7 1h16c14 0 26-2 37-6 12-5 21-12 29-20 7-8 13-18 18-30 4-11 6-24 6-37 0-16-5-28-14-36-8-9-23-13-42-13zm2-22c27 0 47 7 60 19 14 13 20 30 20 52 0 15-2 29-7 43-4 14-12 26-22 37s-22 19-38 26c-15 6-34 9-55 9-8 0-16 0-24-1-9-1-16-2-23-4l42-176c8-2 15-3 24-4 8 0 16-1 23-1z"/>
  <path class="fil2" d="m1350 208h-11c-4 0-8-1-12-1-5 0-9-1-13-1-4-1-7-2-11-3l43-176c7-2 15-3 24-4 9 0 17-1 25-1s17 1 24 3c7 1 14 4 19 7 6 3 10 7 13 12 3 6 4 12 4 19 0 11-3 20-9 29-7 8-15 14-27 18 8 3 14 7 19 13 4 5 7 13 7 21 0 12-3 22-8 30-5 9-11 15-20 20-8 5-18 9-30 11-11 2-23 3-37 3zm-2-87-15 65c2 0 5 0 8 1h15c7 0 14 0 21-1s14-3 20-6 11-7 15-12c5-6 7-13 7-21 0-9-3-15-10-20-6-4-16-6-29-6h-32zm5-20h25c6 0 12 0 18-1s11-3 16-6c5-2 9-6 13-10 3-4 4-10 4-17 0-9-3-15-10-18-6-4-16-6-30-6-5 0-9 1-13 1-5 0-8 1-9 1l-14 56z"/>
 
</svg>
