<?xml version="1.0" encoding="UTF-8"?>
<!DOCTYPE svg  PUBLIC '-//W3C//DTD SVG 1.1//EN'  'http://www.w3.org/Graphics/SVG/1.1/DTD/svg11.dtd'>
<svg width="1370px" height="215px" clip-rule="evenodd" fill-rule="evenodd" image-rendering="optimizeQuality" shape-rendering="geometricPrecision" text-rendering="geometricPrecision" version="1.1" viewBox="0 0 1474 231" xml:space="preserve" xmlns="http://www.w3.org/2000/svg">
 <defs>
  <style type="text/css">
   <![CDATA[
    .fil0 {fill:black}
    .fil2 {fill:#6699FF;fill-rule:nonzero}
    .fil1 {fill:white;fill-rule:nonzero}
   ]]>
  </style>
 </defs>
 
  
  <rect class="fil0" width="1474" height="231"/>
  <path class="fil1" d="m114 22c19 0 35 4 46 12s17 19 17 35c0 15-4 28-13 38-9 11-22 18-38 23 2 3 4 8 7 14 3 5 6 11 9 18s6 14 8 22c3 7 6 14 8 21h-26c-3-6-5-13-8-20-2-7-5-13-8-19-2-7-5-13-8-18-2-6-5-10-7-15-2 1-5 1-7 1h-7-20l-17 71h-25l43-178c7-2 15-3 23-4 8 0 16-1 23-1zm-3 22c-12 0-20 0-22 1l-17 68h15c8 0 15 0 22-1 8-1 15-3 21-6s11-8 15-13c4-6 6-13 6-22 0-10-4-17-11-21-8-4-17-6-29-6z"/>
  <path class="fil1" d="m214 134c10 0 19-1 27-2 9-1 16-3 22-5s11-5 14-9c4-4 5-10 5-16 0-2 0-3-1-5 0-2-1-3-3-5-1-1-3-3-6-4s-6-1-10-1c-6 0-11 1-17 4-5 2-10 6-14 10s-8 9-11 15-5 12-6 18zm24 75c-9 0-16-1-23-4-6-3-12-6-16-10-4-5-7-10-10-16-2-6-3-12-3-19 0-12 2-24 6-35 3-11 9-22 15-30 7-9 16-16 25-21 10-5 21-8 34-8 7 0 13 1 18 3s9 4 13 7c3 4 5 7 7 11 1 4 2 9 2 13 0 8-1 15-4 21-3 5-7 10-12 14s-11 7-17 9c-7 2-14 4-21 5s-14 2-21 2c-7 1-14 1-21 2v3 2c0 4 1 8 2 11 0 4 2 7 5 10s6 5 11 6c4 2 10 3 18 3 3 0 7-1 10-1 4-1 7-2 10-3 4-1 7-2 9-3 3-1 4-1 5-2l3 20c-4 2-10 4-17 7-8 2-17 3-28 3z"/>
  <path class="fil1" d="m362 209c-13 0-23-3-29-9-6-5-9-14-9-25 0-7 1-16 4-27l28-116 25-5-10 42h46l-5 21h-46l-14 60c-3 8-4 15-4 21s2 10 5 13c3 2 8 4 16 4 5 0 10-1 15-3s8-3 11-4l2 20c-3 2-7 3-14 5-6 2-13 3-21 3z"/>
  <path class="fil1" d="m495 67h7c3 0 5 0 8 1 2 0 5 1 7 1s3 1 5 1l-8 22c-3-2-7-3-12-3-4-1-8-2-13-2-3 0-7 1-11 1-3 1-6 1-9 2l-28 115h-24l32-130c7-3 14-5 22-6 8-2 16-2 24-2z"/>
  <path class="fil1" d="m606 207-3-6c-1-3-1-5-2-8-4 4-9 7-15 11-7 3-15 5-24 5-8 0-14-1-20-4-5-2-10-6-13-10-4-4-6-10-8-16-2-5-3-12-3-19 0-12 2-23 6-34 4-12 10-21 18-30s18-16 29-21c12-6 26-8 42-8 5 0 10 0 16 1 7 1 12 3 17 5l-20 82-3 12c0 4-1 7-1 11s1 9 1 13c1 4 2 8 4 13l-21 3zm-39-19c7 0 13-1 19-5 5-3 9-6 13-11 0-3 1-6 1-9 1-3 1-6 2-10l15-64c0-1-2-1-4-1s-4-1-5-1c-10 0-19 2-27 6s-15 9-21 16c-5 6-10 13-13 22-3 8-4 17-4 26 0 4 0 8 1 11 0 4 2 7 4 10 1 3 4 6 7 7 3 2 7 3 12 3z"/>
  <path class="fil1" d="m661 157c0-12 2-24 5-35 4-10 9-20 16-29 7-8 16-15 26-20s22-7 35-7c5 0 11 0 16 1s10 3 15 5l-9 20c-3-1-6-3-10-3-4-1-8-2-14-2-9 0-17 2-23 6-7 4-13 9-18 15s-8 13-11 21c-2 8-4 17-4 25 0 5 1 9 2 13s3 8 5 11 6 5 10 7 9 3 15 3c3 0 7-1 10-1 4-1 7-2 10-3 3 0 6-1 8-2s4-2 5-3l2 21c-3 2-8 4-15 6s-15 3-24 3c-8 0-16-1-22-4-7-3-12-6-17-11-4-4-7-10-9-16-3-7-4-14-4-21z"/>
  <path class="fil1" d="m819 209c-13 0-22-3-28-9-7-5-10-14-10-25 0-7 2-16 4-27l28-116 25-5-10 42h46l-4 21h-47l-14 60c-2 8-3 15-3 21s1 10 4 13c4 2 9 4 16 4 5 0 10-1 15-3s9-3 11-4l2 20c-3 2-7 3-13 5-7 2-14 3-22 3z"/>
  <path class="fil1" d="m925 209c-14 0-25-4-33-13-9-8-13-20-13-35 0-10 2-21 5-32s7-21 13-31c7-9 15-17 25-23s22-9 36-9 25 4 33 13c9 8 13 20 13 35 0 10-2 20-5 31-3 12-7 22-13 31-7 10-15 18-25 24s-22 9-36 9zm4-21c8 0 15-2 21-7 7-4 12-10 16-17s8-15 10-23c2-9 3-17 3-25 0-9-2-16-5-21-4-6-11-8-20-8-8 0-15 2-21 6-7 5-12 11-16 18s-8 15-10 23c-2 9-3 17-3 25 0 9 2 16 6 21 3 6 10 8 19 8z"/>
  <path class="fil1" d="m1096 67h7c3 0 5 0 8 1 2 0 5 1 7 1s4 1 5 1l-7 22c-4-2-8-3-12-3-5-1-9-2-14-2-3 0-7 1-10 1-4 1-7 1-10 2l-27 115h-25l32-130c7-3 14-5 22-6 8-2 16-2 24-2z"/>
  <path class="fil2" d="m1204 44c-13 0-21 0-23 1l-34 139c2 1 4 1 7 1 4 1 9 1 16 1 14 0 27-3 38-7 11-5 20-11 28-20 7-8 13-18 18-29 4-11 6-24 6-38 0-15-5-27-13-35-9-9-23-13-43-13zm2-22c27 0 47 7 60 19 14 13 20 30 20 51 0 15-2 30-7 44-4 14-12 26-22 36-10 11-22 20-38 26-15 6-34 9-55 9-7 0-15 0-24-1-8-1-16-2-22-4l42-175c7-2 15-3 23-4 8 0 16-1 23-1z"/>
  <path class="fil2" d="m1345 207h-11c-4 0-9 0-13-1-4 0-8-1-12-1-4-1-8-2-11-3l42-175c8-2 16-3 25-4 9 0 17-1 24-1 9 0 17 1 24 3 8 1 14 3 20 7 5 3 9 7 12 12 3 6 5 12 5 19 0 11-3 20-10 28-6 8-15 14-26 18 7 3 13 7 18 13s7 13 7 21c0 12-2 23-7 31s-12 15-20 19c-9 5-19 9-30 11-12 2-24 3-37 3zm-2-86-15 64c2 0 4 1 8 1h15c6 0 13 0 21-1 7-1 14-3 20-6s11-7 15-12 6-12 6-21-3-15-9-19-16-6-30-6h-31zm5-20h25c5 0 11-1 17-2s12-2 17-5c5-2 9-6 12-10 3-5 5-10 5-17 0-9-4-15-10-19-7-3-17-5-30-5-5 0-9 0-14 1-4 0-7 0-9 1l-13 56z"/>
 
</svg>
